<?xml version="1.0" standalone="no"?>
<!DOCTYPE svg PUBLIC "-//W3C//DTD SVG 20010904//EN"
 "http://www.w3.org/TR/2001/REC-SVG-20010904/DTD/svg10.dtd">
<svg version="1.0" xmlns="http://www.w3.org/2000/svg"
 width="700.000000pt" height="700.000000pt" viewBox="0 0 700.000000 700.000000"
 preserveAspectRatio="xMidYMid meet">
<metadata>
Created by potrace 1.11, written by Peter Selinger 2001-2013
</metadata>
<g transform="translate(0.000000,700.000000) scale(0.100000,-0.100000)"
fill="#000000" stroke="none">
<path d="M475 6976 c-117 -32 -199 -79 -285 -166 -121 -121 -179 -254 -185
-420 -2 -56 3 -122 11 -160 71 -332 392 -550 729 -494 59 10 173 52 224 85
l46 28 327 -327 c180 -180 328 -330 328 -334 0 -3 -28 -40 -63 -80 -190 -224
-367 -535 -452 -795 -30 -89 -72 -236 -78 -273 -49 -259 -52 -295 -52 -535 0
-248 9 -339 52 -535 88 -403 297 -818 557 -1105 l45 -50 -331 -332 c-183 -182
-337 -329 -342 -326 -6 4 -27 16 -46 28 -92 56 -206 87 -319 87 -240 -1 -442
-119 -562 -329 -46 -81 -71 -174 -74 -285 -3 -122 13 -198 67 -307 68 -140
239 -291 329 -291 65 0 115 77 90 139 -7 15 -35 42 -64 61 -146 95 -219 221
-219 376 0 293 286 501 562 408 149 -51 245 -156 285 -312 46 -180 -35 -362
-211 -474 -77 -48 -90 -119 -32 -172 43 -39 94 -33 174 21 139 95 221 209 264
367 41 147 25 301 -47 445 l-42 86 332 332 332 333 40 -37 c162 -149 460 -336
675 -423 30 -12 69 -28 85 -35 69 -30 268 -87 380 -109 201 -41 300 -50 505
-50 278 -1 450 26 760 116 272 79 678 311 895 512 l28 26 327 -327 328 -327
-34 -61 c-62 -112 -84 -196 -85 -319 -1 -269 164 -503 422 -597 99 -36 244
-46 347 -24 234 51 433 249 487 485 14 63 15 211 1 273 -28 122 -99 246 -190
330 -70 65 -204 138 -281 153 -11 2 -33 6 -48 10 -47 10 -173 7 -229 -6 -69
-15 -153 -48 -201 -78 -22 -13 -40 -22 -42 -20 -13 11 -605 602 -628 625 -26
28 -26 30 -9 49 105 114 232 291 319 444 176 311 273 626 313 1017 8 81 5 397
-5 468 -3 22 -7 54 -9 71 -3 28 -14 94 -21 135 -21 114 -77 303 -130 444 -88
232 -283 553 -438 720 l-46 50 328 328 328 329 50 -31 c28 -17 57 -31 66 -31
9 0 18 -4 22 -9 17 -29 238 -52 340 -36 171 28 343 149 436 307 38 63 38 108
2 148 -55 59 -121 43 -177 -44 -158 -247 -481 -286 -679 -83 -83 85 -128 202
-122 321 7 151 91 284 225 355 57 31 174 61 215 55 90 -11 119 -18 171 -43 78
-38 131 -86 185 -166 63 -93 122 -109 182 -49 56 56 18 155 -109 281 -77 77
-190 140 -289 164 -78 18 -215 20 -286 3 -74 -17 -189 -63 -189 -76 0 -4 -5
-8 -11 -8 -18 0 -105 -73 -152 -129 -174 -204 -197 -514 -55 -741 l28 -45
-326 -326 -327 -327 -26 23 c-14 13 -39 35 -56 50 -53 46 -227 171 -310 222
-301 185 -665 310 -1015 349 -36 3 -78 8 -95 10 -42 5 -331 4 -385 -1 -25 -2
-63 -7 -85 -9 -22 -3 -60 -8 -85 -11 -404 -50 -919 -282 -1230 -555 -14 -12
-39 -34 -56 -50 l-31 -28 -326 326 c-180 180 -329 330 -332 334 -4 3 4 23 17
45 127 203 117 489 -23 688 -121 171 -293 264 -504 270 -79 3 -117 -1 -180
-19z m285 -202 c144 -43 260 -165 294 -312 66 -282 -155 -544 -443 -527 -84 5
-166 35 -229 83 -54 40 -61 48 -106 117 -89 135 -91 325 -3 455 36 54 111 126
152 148 103 53 231 67 335 36z m3020 -1061 c251 -136 471 -455 630 -913 34
-99 80 -263 75 -268 -15 -15 -383 -96 -489 -107 -21 -3 -56 -7 -76 -10 -58 -9
-108 -13 -213 -20 l-97 -5 0 694 0 695 53 -15 c28 -9 81 -31 117 -51z m-375
-633 l0 -690 -85 5 c-80 5 -171 13 -222 20 -13 2 -48 6 -78 9 -123 15 -470 93
-487 110 -19 19 154 499 228 634 12 20 35 62 52 92 92 166 265 360 380 428 67
41 164 81 192 82 20 0 21 -3 20 -690z m-563 572 c-165 -195 -277 -389 -385
-662 -45 -114 -105 -299 -114 -353 -3 -15 -9 -30 -14 -32 -30 -19 -619 265
-619 298 0 11 87 112 170 198 153 158 396 337 587 433 121 60 391 167 402 159
3 -2 -10 -20 -27 -41z m1394 14 c286 -98 537 -240 752 -425 98 -85 322 -321
322 -341 0 -8 -196 -116 -315 -173 -100 -49 -288 -127 -304 -127 -5 0 -16 30
-25 68 -61 239 -186 540 -306 733 -52 83 -154 218 -205 272 -14 15 -24 27 -22
27 2 0 48 -15 103 -34z m-2532 -1005 c158 -92 530 -261 573 -261 8 0 12 -4 9
-8 -3 -5 -8 -31 -12 -58 -3 -27 -8 -58 -10 -69 -11 -54 -23 -139 -39 -270 -4
-32 -17 -222 -20 -295 -1 -25 -3 -56 -4 -70 l-1 -25 -477 0 c-263 0 -484 4
-491 8 -7 5 -10 11 -8 15 2 4 7 41 10 82 6 64 15 128 41 275 34 189 157 498
272 687 28 46 39 56 52 49 9 -5 56 -32 105 -60z m3756 27 c14 -24 32 -56 42
-73 158 -272 279 -685 282 -965 l1 -44 -484 0 -485 -1 -2 45 c-5 105 -15 259
-19 305 -8 76 -27 228 -31 250 -5 22 -23 138 -27 169 -1 14 10 24 48 39 224
89 425 185 565 270 41 25 78 46 81 46 3 1 16 -18 29 -41z m-2923 -373 c12 -3
30 -8 40 -10 10 -2 43 -10 73 -18 30 -9 93 -22 140 -31 47 -9 96 -18 110 -21
29 -6 74 -12 145 -21 28 -3 61 -7 75 -10 14 -2 75 -6 135 -9 61 -3 119 -8 130
-10 20 -4 21 -11 21 -290 0 -157 -3 -286 -6 -286 -3 -1 -227 -2 -499 -3 l-494
-1 7 135 c4 74 8 152 10 174 6 59 18 167 21 190 9 54 27 166 30 183 2 10 4 24
4 31 1 8 8 11 19 8 9 -2 27 -7 39 -11z m2013 -69 c7 -45 14 -94 16 -111 2 -16
8 -64 14 -105 10 -79 17 -163 26 -321 3 -74 2 -98 -8 -101 -7 -2 -231 -3 -498
-3 l-485 0 -3 285 c-1 156 1 287 5 291 5 4 68 10 142 13 74 4 137 8 140 10 3
2 37 7 74 11 37 3 76 8 85 9 41 8 89 16 112 21 14 3 59 12 100 20 41 8 113 25
160 38 47 12 90 23 96 23 6 0 17 -35 24 -80z m-2349 -853 c0 -5 2 -39 4 -78
10 -173 16 -262 20 -290 2 -16 7 -54 10 -83 5 -48 9 -81 20 -157 5 -35 22
-128 30 -167 5 -25 1 -28 -52 -48 -167 -61 -404 -173 -543 -255 -107 -63 -93
-66 -149 29 -167 283 -273 610 -306 941 -4 38 -7 98 -6 108 1 4 219 7 486 7
267 0 485 -3 486 -7z m1204 -297 l0 -298 -70 -4 c-101 -5 -228 -15 -235 -19
-3 -1 -39 -6 -80 -9 -41 -4 -91 -11 -110 -16 -19 -5 -51 -11 -70 -14 -62 -9
-132 -25 -235 -51 -55 -13 -105 -25 -112 -25 -6 0 -14 23 -18 53 -4 28 -9 61
-11 72 -8 39 -23 151 -29 215 -4 36 -9 81 -11 100 -2 19 -7 95 -10 168 l-6
132 498 -2 499 -3 0 -299z m1200 197 c-5 -116 -14 -233 -20 -273 -2 -14 -6
-50 -10 -80 -3 -30 -13 -96 -21 -146 -8 -51 -16 -101 -17 -113 -2 -26 -8 -26
-106 -1 -43 11 -87 22 -97 25 -10 2 -51 10 -90 19 -86 18 -194 36 -249 41 -23
2 -54 6 -70 9 -17 4 -66 9 -110 12 -44 3 -102 7 -130 9 -27 2 -56 4 -62 4 -10
1 -13 68 -13 301 l0 300 500 0 501 0 -6 -107z m1181 35 c-20 -227 -64 -425
-138 -623 -51 -135 -183 -399 -223 -443 -2 -2 -14 3 -27 11 -107 69 -372 200
-539 267 -71 29 -129 55 -129 59 0 7 11 72 25 146 7 37 12 76 19 140 4 28 8
60 10 73 3 12 8 59 11 105 4 45 8 100 10 122 2 22 4 76 6 120 1 44 4 83 6 88
2 4 223 7 490 7 l485 0 -6 -72z m-2380 -1418 l0 -681 -31 7 c-16 3 -58 19 -93
34 -230 106 -418 331 -583 701 -48 108 -139 364 -157 445 l-9 40 131 32 c144
35 254 57 331 68 109 15 254 29 330 32 l80 3 1 -681z m549 654 c188 -26 480
-87 515 -109 14 -9 13 -20 -11 -100 -192 -634 -487 -1036 -824 -1121 l-25 -6
0 682 0 682 118 -6 c64 -4 167 -14 227 -22z m-1577 -319 c103 -343 260 -651
436 -857 37 -43 63 -78 59 -78 -4 0 -39 11 -78 24 -327 110 -611 280 -854 511
-80 76 -221 233 -221 245 0 5 12 15 28 23 15 8 83 44 150 81 68 36 125 66 127
66 2 0 34 14 72 32 96 44 238 98 240 90 1 -4 20 -65 41 -137z m2503 65 c127
-56 369 -181 418 -217 16 -11 -239 -273 -362 -370 -207 -166 -469 -308 -711
-387 -44 -14 -81 -25 -82 -23 -2 1 13 20 32 42 198 224 369 559 474 925 12 41
24 83 26 92 5 16 10 15 68 -6 35 -13 96 -39 137 -56z m1614 -1263 c182 -67
297 -225 297 -407 0 -118 -43 -222 -126 -306 -64 -63 -129 -98 -226 -121 -24
-5 -132 -4 -163 2 -116 23 -233 110 -290 216 -159 293 60 647 393 634 41 -2
93 -10 115 -18z"/>
</g>
</svg>
